. 
  
http://www.torrenting.com/        :     Greatest Movie Tracker on The Net!!!
 
http://www.Torrenting.com          :     Once & For all ;)


               www . Torrenting . Com 

(((((((((((((= Enjoy No RAR releases =))))))))))))))))))))


...................................NFO:....................................

.[img]http://img253.imageshack.us/img253/5995/johnnyenglishreborn.jpg[/img]

Johnny.English.Reborn.TS.XviD-EMBER
 
http://www.imdb.com/title/tt1634122/

Plot
Johnny English goes up against international assassins hunting down the Chinese premier.

Source                           : REBORN thanks great work ;)

General
Format                           : AVI
Format/Info                      : Audio Video Interleave
File size                        : 1.37 GiB
Duration                         : 1h 34mn
Overall bit rate                 : 2 063 Kbps
Writing application              : VirtualDubMod 1.5.10.2 (build 2540/release)
Writing library                  : VirtualDubMod build 2540/release

Video
ID                               : 0
Format                           : MPEG-4 Visual
Format profile                   : Advanced Simple@L5
Format settings, BVOP            : 2
Format settings, QPel            : No
Format settings, GMC             : No warppoints
Format settings, Matrix          : Default (H.263)
Muxing mode                      : Packed bitstream
Codec ID                         : XVID
Codec ID/Hint                    : XviD
Duration                         : 1h 34mn
Bit rate                         : 1 925 Kbps
Width                            : 720 pixels
Height                           : 304 pixels
Display aspect ratio             : 2.35:1
Frame rate                       : 25.000 fps
Color space                      : YUV
Chroma subsampling               : 4:2:0
Bit depth                        : 8 bits
Scan type                        : Progressive
Compression mode                 : Lossy
Bits/(Pixel*Frame)               : 0.352
Stream size                      : 1.28 GiB (93%)
Writing library                  : XviD 64

Audio
ID                               : 1
Format                           : MPEG Audio
Format version                   : Version 1
Format profile                   : Layer 3
Mode                             : Joint stereo
Mode extension                   : MS Stereo
Codec ID                         : 55
Codec ID/Hint                    : MP3
Duration                         : 1h 34mn
Bit rate mode                    : Constant
Bit rate                         : 128 Kbps
Channel(s)                       : 2 channels
Sampling rate                    : 44.1 KHz
Compression mode                 : Lossy
Stream size                      : 86.9 MiB (6%)
Alignment                        : Split accross interleaves
Interleave, duration             : 40 ms (1.00 video frame)
Interleave, preload duration     : 500 ms
Writing library                  : LAME3.98r
Encoding settings                : -m j -V 4 -q 2 -lowpass 17 -b 128

Notes
Changed RGB Levels and Saturation, smoothed the video and added strong denoiser, added several other filters also and then added sharpness
Audio i added into sony sound forge and lowered the bass, and adjusted the equaliser settings slightly

Dont like it? dont download it :P

Enjoy

Sample included

Screens
[img]http://img594.imageshack.us/img594/3926/28503629.png[/img]
[img]http://img546.imageshack.us/img546/7973/68365875.png[/img]
[img]http://img810.imageshack.us/img810/2181/81191284.png[/img]
[img]http://img404.imageshack.us/img404/797/96062947.png[/img]
[img]http://img441.imageshack.us/img441/2489/16381421.png[/img]
[img]http://img684.imageshack.us/img684/5206/88001298.png[/img]
[img]http://img535.imageshack.us/img535/2360/18393312.png[/img]


Greetz to 
SHiRK, SHK, LKRG, UnKnOwN, IMAGiNE, SiC, BHRG, TaRiQ786, FLAWL3SS, Rx, Hive-CM8

And to all other groups past and present

Got something to offer?

ember@hushmail.me